<svg xmlns="http://www.w3.org/2000/svg" xmlns:xlink="http://www.w3.org/1999/xlink" width="1080" zoomAndPan="magnify" viewBox="0 0 810 809.999993" height="1080" preserveAspectRatio="xMidYMid meet" version="1.0"><defs><clipPath id="27285db1ab"><path d="M 14.238281 21.726562 L 795.738281 21.726562 L 795.738281 803.226562 L 14.238281 803.226562 Z M 14.238281 21.726562 " clip-rule="nonzero"/></clipPath></defs><g clip-path="url(#27285db1ab)"><path fill="#665d61" d="M 783.089844 803.183594 L 26.964844 803.183594 C 20.117188 803.183594 14.570312 797.632812 14.570312 790.789062 L 14.570312 720.152344 C 14.570312 602.636719 110.175781 507.03125 227.691406 507.03125 L 582.359375 507.03125 C 699.875 507.03125 795.484375 602.636719 795.484375 720.152344 L 795.484375 790.789062 C 795.484375 797.632812 789.933594 803.183594 783.089844 803.183594 Z M 405.027344 473.707031 C 280.414062 473.707031 179.039062 372.328125 179.039062 247.71875 C 179.039062 123.105469 280.414062 21.726562 405.027344 21.726562 C 529.636719 21.726562 631.015625 123.105469 631.015625 247.71875 C 631.015625 372.328125 529.636719 473.707031 405.027344 473.707031 Z M 405.027344 473.707031 " fill-opacity="1" fill-rule="nonzero"/></g></svg>