<svg xmlns="http://www.w3.org/2000/svg" xmlns:xlink="http://www.w3.org/1999/xlink" width="1080" zoomAndPan="magnify" viewBox="0 0 810 809.999993" height="1080" preserveAspectRatio="xMidYMid meet" version="1.0"><path fill="#665d61" d="M 777.972656 365.910156 C 788.59375 355.292969 792.574219 339.363281 787.265625 324.765625 C 781.957031 310.164062 770.011719 299.542969 755.410156 298.21875 L 544.363281 266.363281 C 540.382812 265.035156 536.398438 262.378906 533.746094 258.398438 L 440.832031 59.296875 C 434.195312 44.699219 420.921875 35.40625 404.996094 35.40625 C 389.066406 35.40625 375.792969 44.699219 369.15625 57.96875 L 276.242188 257.070312 C 274.917969 261.050781 270.933594 263.707031 265.625 265.035156 L 54.578125 298.21875 C 39.980469 300.871094 28.03125 310.164062 22.722656 324.765625 C 17.414062 339.363281 21.394531 355.292969 32.015625 365.910156 L 185.984375 523.863281 C 188.640625 526.519531 189.96875 531.828125 189.96875 535.808594 L 154.128906 757.472656 C 151.476562 773.402344 158.109375 788 170.058594 797.292969 C 176.695312 802.601562 184.65625 805.257812 192.621094 805.257812 C 199.257812 805.257812 205.894531 803.929688 212.53125 799.949219 L 398.359375 696.414062 C 402.339844 693.761719 407.648438 693.761719 411.632812 696.414062 L 597.457031 799.949219 C 610.730469 807.910156 626.660156 806.585938 639.933594 797.292969 C 653.203125 788 658.515625 773.402344 655.859375 757.472656 L 620.023438 535.808594 C 618.695312 531.828125 621.347656 526.519531 624.003906 523.863281 Z M 777.972656 365.910156 " fill-opacity="1" fill-rule="nonzero"/></svg>