<svg xmlns="http://www.w3.org/2000/svg" xmlns:xlink="http://www.w3.org/1999/xlink" width="1080" zoomAndPan="magnify" viewBox="0 0 810 809.999993" height="1080" preserveAspectRatio="xMidYMid meet" version="1.0"><defs><clipPath id="590587a426"><path d="M 8.679688 8.679688 L 801.320312 8.679688 L 801.320312 801.320312 L 8.679688 801.320312 Z M 8.679688 8.679688 " clip-rule="nonzero"/></clipPath><clipPath id="bfef2eeb75"><path d="M 405 8.679688 C 186.117188 8.679688 8.679688 186.117188 8.679688 405 C 8.679688 623.882812 186.117188 801.320312 405 801.320312 C 623.882812 801.320312 801.320312 623.882812 801.320312 405 C 801.320312 186.117188 623.882812 8.679688 405 8.679688 Z M 405 8.679688 " clip-rule="nonzero"/></clipPath><clipPath id="cad2891836"><path d="M 255.347656 203.109375 L 554.597656 203.109375 L 554.597656 606.609375 L 255.347656 606.609375 Z M 255.347656 203.109375 " clip-rule="nonzero"/></clipPath></defs><g clip-path="url(#590587a426)"><g clip-path="url(#bfef2eeb75)"><path fill="#991428" d="M 8.679688 8.679688 L 801.320312 8.679688 L 801.320312 801.320312 L 8.679688 801.320312 Z M 8.679688 8.679688 " fill-opacity="1" fill-rule="nonzero"/></g></g><g clip-path="url(#cad2891836)"><path fill="#ebdec8" d="M 442.390625 203.109375 L 305.460938 203.109375 C 278.117188 203.109375 255.875 225.351562 255.875 252.695312 L 255.875 557.300781 C 255.875 584.644531 278.117188 606.890625 305.460938 606.890625 L 505.226562 606.890625 C 532.570312 606.890625 554.8125 584.644531 554.8125 557.300781 L 554.8125 318.148438 L 491.980469 318.148438 C 464.636719 318.148438 442.390625 295.90625 442.390625 268.5625 Z M 442.390625 203.109375 " fill-opacity="1" fill-rule="nonzero"/></g><path fill="#ebdec8" d="M 491.980469 303.980469 L 550.777344 303.980469 L 456.558594 207.285156 L 456.558594 268.5625 C 456.558594 288.113281 472.429688 303.980469 491.980469 303.980469 Z M 491.980469 303.980469 " fill-opacity="1" fill-rule="nonzero"/></svg>