<svg xmlns="http://www.w3.org/2000/svg" xmlns:xlink="http://www.w3.org/1999/xlink" width="1080" zoomAndPan="magnify" viewBox="0 0 810 809.999993" height="1080" preserveAspectRatio="xMidYMid meet" version="1.0"><path fill="#665d61" d="M 757.863281 439.613281 L 725.398438 439.613281 L 725.398438 772.515625 C 725.328125 773.636719 725.203125 774.75 725.023438 775.855469 C 724.847656 776.964844 724.617188 778.0625 724.332031 779.144531 C 724.046875 780.230469 723.707031 781.300781 723.320312 782.351562 C 722.929688 783.402344 722.488281 784.433594 722 785.441406 C 721.511719 786.453125 720.972656 787.433594 720.386719 788.390625 C 719.800781 789.347656 719.171875 790.273438 718.496094 791.171875 C 717.820312 792.066406 717.101562 792.925781 716.339844 793.75 C 715.582031 794.574219 714.78125 795.363281 713.945312 796.109375 C 713.109375 796.855469 712.238281 797.5625 711.332031 798.222656 C 710.429688 798.886719 709.492188 799.503906 708.527344 800.074219 C 707.5625 800.644531 706.570312 801.167969 705.554688 801.644531 C 704.539062 802.117188 703.5 802.542969 702.445312 802.914062 C 701.386719 803.289062 700.3125 803.609375 699.222656 803.878906 C 698.132812 804.148438 697.035156 804.363281 695.925781 804.523438 C 694.816406 804.683594 693.699219 804.792969 692.578125 804.84375 C 691.457031 804.898438 690.335938 804.894531 689.21875 804.839844 L 497.433594 804.839844 L 497.433594 577.855469 C 497.433594 577.078125 497.394531 576.300781 497.320312 575.53125 C 497.242188 574.757812 497.128906 573.988281 496.976562 573.226562 C 496.824219 572.464844 496.636719 571.714844 496.414062 570.972656 C 496.1875 570.226562 495.925781 569.496094 495.628906 568.78125 C 495.332031 568.0625 495 567.363281 494.632812 566.675781 C 494.269531 565.992188 493.871094 565.328125 493.4375 564.679688 C 493.007812 564.035156 492.546875 563.414062 492.054688 562.8125 C 491.5625 562.210938 491.039062 561.636719 490.492188 561.085938 C 489.941406 560.539062 489.367188 560.015625 488.765625 559.523438 C 488.167969 559.03125 487.542969 558.570312 486.898438 558.136719 C 486.253906 557.707031 485.589844 557.308594 484.902344 556.941406 C 484.21875 556.574219 483.519531 556.242188 482.800781 555.945312 C 482.082031 555.648438 481.355469 555.386719 480.609375 555.160156 C 479.867188 554.933594 479.117188 554.746094 478.355469 554.59375 C 477.59375 554.441406 476.824219 554.328125 476.054688 554.25 C 475.28125 554.175781 474.503906 554.136719 473.730469 554.136719 L 334.582031 554.136719 C 333.804688 554.136719 333.03125 554.171875 332.257812 554.25 C 331.484375 554.324219 330.71875 554.441406 329.957031 554.589844 C 329.195312 554.742188 328.441406 554.929688 327.699219 555.15625 C 326.957031 555.382812 326.226562 555.644531 325.507812 555.941406 C 324.792969 556.238281 324.089844 556.570312 323.40625 556.9375 C 322.71875 557.304688 322.054688 557.703125 321.410156 558.132812 C 320.765625 558.566406 320.140625 559.027344 319.539062 559.519531 C 318.941406 560.011719 318.367188 560.535156 317.816406 561.082031 C 317.269531 561.632812 316.746094 562.207031 316.253906 562.808594 C 315.761719 563.410156 315.300781 564.03125 314.867188 564.679688 C 314.4375 565.324219 314.039062 565.988281 313.671875 566.675781 C 313.308594 567.359375 312.976562 568.0625 312.679688 568.777344 C 312.382812 569.496094 312.121094 570.226562 311.898438 570.96875 C 311.671875 571.714844 311.484375 572.464844 311.332031 573.226562 C 311.179688 573.988281 311.066406 574.757812 310.992188 575.527344 C 310.917969 576.300781 310.878906 577.078125 310.878906 577.855469 L 310.878906 804.824219 L 119.082031 804.824219 C 117.964844 804.882812 116.847656 804.890625 115.730469 804.839844 C 114.613281 804.789062 113.5 804.683594 112.394531 804.527344 C 111.289062 804.367188 110.191406 804.15625 109.105469 803.890625 C 108.019531 803.621094 106.949219 803.304688 105.894531 802.933594 C 104.839844 802.5625 103.804688 802.140625 102.789062 801.667969 C 101.777344 801.199219 100.789062 800.675781 99.824219 800.109375 C 98.863281 799.539062 97.929688 798.925781 97.027344 798.265625 C 96.125 797.605469 95.257812 796.902344 94.421875 796.15625 C 93.589844 795.414062 92.792969 794.628906 92.035156 793.804688 C 91.28125 792.984375 90.566406 792.125 89.890625 791.234375 C 89.21875 790.339844 88.589844 789.417969 88.007812 788.460938 C 87.425781 787.507812 86.890625 786.527344 86.402344 785.519531 C 85.914062 784.515625 85.480469 783.488281 85.09375 782.4375 C 84.707031 781.386719 84.371094 780.320312 84.089844 779.238281 C 83.808594 778.15625 83.578125 777.066406 83.40625 775.960938 C 83.230469 774.855469 83.109375 773.746094 83.042969 772.628906 L 83.042969 439.613281 L 50.4375 439.613281 C 14.300781 439.613281 -5.277344 405.589844 18.394531 383.757812 L 375.226562 53.875 C 376.34375 52.933594 377.496094 52.039062 378.6875 51.199219 C 379.878906 50.359375 381.109375 49.570312 382.371094 48.835938 C 383.632812 48.105469 384.921875 47.429688 386.246094 46.808594 C 387.566406 46.1875 388.914062 45.628906 390.285156 45.128906 C 391.65625 44.628906 393.042969 44.1875 394.453125 43.808594 C 395.863281 43.429688 397.289062 43.117188 398.726562 42.863281 C 400.164062 42.609375 401.609375 42.421875 403.0625 42.292969 C 404.515625 42.167969 405.972656 42.109375 407.433594 42.109375 C 408.894531 42.113281 410.347656 42.179688 411.804688 42.3125 C 413.257812 42.445312 414.703125 42.636719 416.136719 42.898438 C 417.574219 43.15625 418.996094 43.476562 420.40625 43.859375 C 421.8125 44.246094 423.203125 44.691406 424.570312 45.195312 C 425.9375 45.703125 427.285156 46.269531 428.601562 46.890625 C 429.921875 47.515625 431.210938 48.199219 432.46875 48.9375 C 433.730469 49.675781 434.953125 50.46875 436.140625 51.3125 C 437.332031 52.160156 438.480469 53.054688 439.589844 54.003906 C 556.410156 163.960938 673.277344 273.914062 790.199219 383.871094 C 813.433594 405.917969 793.871094 439.613281 757.863281 439.613281 Z M 757.863281 439.613281 " fill-opacity="1" fill-rule="nonzero"/></svg>